<?xml version="1.0" encoding="utf-8"?>
<!-- Generator: Adobe Illustrator 19.2.1, SVG Export Plug-In . SVG Version: 6.00 Build 0)  -->
<svg version="1.1" id="Laag_1" xmlns="http://www.w3.org/2000/svg" xmlns:xlink="http://www.w3.org/1999/xlink" x="0px" y="0px"
	 width="625px" height="220px" viewBox="0 0 625 220" style="enable-background:new 0 0 625 220;" xml:space="preserve">
<style type="text/css">
	.st0{fill:#fff;}
</style>
<g>
	<g>
		<path class="st0" d="M301.6,101.6h-57.1c3.5-12.9,15.2-21.4,27.6-21.4C287.5,80.2,297.7,87.8,301.6,101.6 M244.2,121.2H328
			c0-1.8,0-3.5,0-5.3c0-13.8-3.2-24.9-9.7-34.3c-11.1-14.7-27.6-23.7-45.4-23.7c-14.3,0-28.1,6.2-38.7,17.3
			c-9.7,10.3-14.7,23.2-14.7,37.8c0,13.8,5.8,28.1,15.6,38.4c10.8,10.8,23.7,16.1,39.3,16.1c23.2,0,41.6-12.9,50.4-35.7h-26.3
			c-5,8.5-14.3,12.9-24.9,12.9C256.5,145.3,245.4,135.9,244.2,121.2"/>
		<path class="st0" d="M365.8,114c0-17.9,12.9-31.3,29.9-31.3s30.4,14.3,30.4,30.8c0,17.3-12.9,30.8-31.7,30.8
			C379.3,144.4,365.8,131,365.8,114 M364.9,69.4V27.5h-24v138.3h24v-8.5c9.7,7.6,20.2,11.1,32.5,11.1c13.4,0,24.9-4.4,34.3-12
			c12.6-10.8,19.6-26.3,19.6-42.8c0-15.2-6.2-30.4-17.9-40.7c-9.7-9.4-22.3-13.8-36.1-13.8C384.6,58.8,374.3,61.8,364.9,69.4"/>
		<path class="st0" d="M468,61.5h23.2v104.3H468V61.5z M468,27.5h23.2v23.2H468V27.5z"/>
		<path class="st0" d="M531.9,112.2c0-17,13.4-29.9,29.9-29.9c15.2,0,29.4,13.4,29.4,31.3c0,16.1-13.8,29.9-29,29.9
			C545.7,143.5,531.9,130.6,531.9,112.2 M593.9,165.8h23.2V61.5h-23.2V74c-7.1-10.3-17.9-15.2-33.1-15.2c-15.6,0-28.1,5-38.7,16.1
			c-9.7,10.3-14.7,23.7-14.7,38.4c0,31.3,23.2,54.8,53.9,54.8c16.1,0,26.7-4.4,32.5-15.2L593.9,165.8L593.9,165.8z"/>
	</g>
	<polygon class="st0" points="6,211.2 69.6,211.2 138.4,142.6 207,211.2 271.4,211.2 170.6,110.4 272.3,8.8 207.9,8.8 138.4,78.4
		69.3,8.8 5.1,8.8 106.2,110.4 	"/>
</g>
</svg>
